<?xml version="1.0" encoding="UTF-8"?>
<svg version="1.1" xmlns="http://www.w3.org/2000/svg" width="48" height="42">
<path d="M0 0 C1.6875 2.1875 1.6875 2.1875 1.6875 4.1875 C0.34109632 6.88030736 -0.86670061 8.40272747 -3.3125 10.1875 C-6.5625 9.9375 -6.5625 9.9375 -9.3125 9.1875 C-8.6525 12.1575 -7.9925 15.1275 -7.3125 18.1875 C0.80789775 18.79435202 0.80789775 18.79435202 8.4375 16.5625 C13.00234944 14.63121754 15.07614648 15.54617078 19.6875 17.1875 C20.3475 17.8475 21.0075 18.5075 21.6875 19.1875 C20.6975 19.5175 19.7075 19.8475 18.6875 20.1875 C18.0275 19.8575 17.3675 19.5275 16.6875 19.1875 C12.03474024 18.8822378 12.03474024 18.8822378 7.6875 20.1875 C7.6875 21.8375 7.6875 23.4875 7.6875 25.1875 C6.6975 25.1875 5.7075 25.1875 4.6875 25.1875 C4.15125 24.5275 3.615 23.8675 3.0625 23.1875 C-0.47732992 20.20659059 -3.86053614 20.84504124 -8.3125 21.1875 C-8.9725 22.5075 -9.6325 23.8275 -10.3125 25.1875 C-10.9725 25.1875 -11.6325 25.1875 -12.3125 25.1875 C-12.13847656 24.50300781 -11.96445313 23.81851562 -11.78515625 23.11328125 C-11.23903455 19.73274278 -11.44027331 16.78199357 -11.75 13.375 C-11.85183594 12.21355469 -11.95367187 11.05210938 -12.05859375 9.85546875 C-12.14238281 8.97503906 -12.22617188 8.09460937 -12.3125 7.1875 C-9.25402152 6.64377049 -6.42477195 6.1875 -3.3125 6.1875 C-3.3125 4.8675 -3.3125 3.5475 -3.3125 2.1875 C-3.3125 1.5275 -3.3125 0.8675 -3.3125 0.1875 C-8.22867947 0.66063607 -12.76644408 1.59727995 -16.3125 5.1875 C-20.04839744 12.62148782 -21.64776046 21.08365599 -23.3125 29.1875 C-22.4875 29.435 -21.6625 29.6825 -20.8125 29.9375 C-18.08372206 30.91206355 -15.97278784 31.9076729 -13.484375 33.3046875 C-9.07454082 35.56404699 -5.42925305 35.58138138 -0.5625 35.3125 C6.61519321 35.11210943 13.73952956 35.08362858 20.6875 37.1875 C21.0175 37.8475 21.3475 38.5075 21.6875 39.1875 C19.93758666 39.21465383 18.18755055 39.23396551 16.4375 39.25 C15.46296875 39.26160156 14.4884375 39.27320313 13.484375 39.28515625 C10.6875 39.1875 10.6875 39.1875 8.75024414 38.66992188 C6.0273767 38.03311444 3.4649568 38.33554158 0.69482422 38.50585938 C-10.24817851 39.06786583 -17.28045356 36.15557788 -26.3125 30.1875 C-25.17920526 20.27458454 -23.23729907 6.3279316 -15.3203125 -0.328125 C-9.58767042 -2.76695073 -5.13143882 -4.02193853 0 0 Z " fill="#391111" transform="translate(26.3125,2.8125)"/>
<path d="M0 0 C1.65322266 0.01740234 1.65322266 0.01740234 3.33984375 0.03515625 C4.99693359 0.04869141 4.99693359 0.04869141 6.6875 0.0625 C7.54214844 0.07410156 8.39679687 0.08570313 9.27734375 0.09765625 C9.93734375 1.41765625 10.59734375 2.73765625 11.27734375 4.09765625 C8.96734375 6.73765625 6.65734375 9.37765625 4.27734375 12.09765625 C0.78971282 10.35384078 -1.75633676 8.56958916 -4.72265625 6.09765625 C-3.65171431 0.13097971 -3.65171431 0.13097971 0 0 Z M-1.72265625 2.09765625 C-1.32462064 4.98341444 -0.93256556 5.91955138 1.33984375 7.84765625 C1.97921875 8.26015625 2.61859375 8.67265625 3.27734375 9.09765625 C4.92734375 7.77765625 6.57734375 6.45765625 8.27734375 5.09765625 C7.94734375 4.10765625 7.61734375 3.11765625 7.27734375 2.09765625 C6.16359375 2.37609375 6.16359375 2.37609375 5.02734375 2.66015625 C2.32743412 3.08968733 0.83103298 2.94888599 -1.72265625 2.09765625 Z " fill="#FF2524" transform="translate(35.72265625,2.90234375)"/>
<path d="M0 0 C0.515625 0.268125 1.03125 0.53625 1.5625 0.8125 C2.366875 1.204375 3.17125 1.59625 4 2 C5.093125 2.53625 6.18625 3.0725 7.3125 3.625 C11.16010307 5.05969945 13.93327879 5.24898293 18 5 C17.67 5.99 17.34 6.98 17 8 C10.9592492 8.4314822 5.87525543 7.93910913 1 4 C0.27734375 1.859375 0.27734375 1.859375 0 0 Z " fill="#FF2424" transform="translate(10,30)"/>
<path d="M0 0 C2.92879371 0.62759865 5.36095629 1.58622659 8 3 C8 3.33 8 3.66 8 4 C6.02 4 4.04 4 2 4 C1.34 2.68 0.68 1.36 0 0 Z " fill="#FF2423" transform="translate(40,31)"/>
</svg>
